<svg viewBox="0 0 256 256" xmlns="http://www.w3.org/2000/svg"><path fill="none" d="M0 0h256v256H0z"></path><path d="M229.9 70.8a.1.1 0 0 1-.1-.1 16.2 16.2 0 0 0-6-5.9l-88-49.5a16 16 0 0 0-15.6 0l-88 49.5a16.2 16.2 0 0 0-6 5.9.1.1 0 0 1-.1.1v.2a15 15 0 0 0-2.1 7.7v98.6a16.1 16.1 0 0 0 8.2 14l88 49.5a16.5 16.5 0 0 0 7.2 2h1.4a15.7 15.7 0 0 0 7-2l88-49.5a16.1 16.1 0 0 0 8.2-14V78.7a15.6 15.6 0 0 0-2.1-7.9ZM128 29.2 207.7 74l-30.6 17.4-80.7-44.5Zm.9 89.6L48.4 74 80 56.2l80.8 44.5Zm7.2 103.5.8-89.6 32.1-18.3v38.1a8 8 0 0 0 16 0v-47.2l31-17.6v89.6Z" fill="#f26322" class="fill-000000"></path></svg>